<?xml version="1.0" encoding="UTF-8"?>
<svg id="Layer_1" xmlns="http://www.w3.org/2000/svg" version="1.1" viewBox="0 0 215.48 170.32">
  <!-- Generator: Adobe Illustrator 29.1.0, SVG Export Plug-In . SVG Version: 2.1.0 Build 142)  -->
  <defs>
    <style>
      .st0 {
        fill: #ed1c24;
      }
    </style>
  </defs>
  <circle class="st0" cx="49.88" cy="73.54" r="11.31"/>
  <path class="st0" d="M212.59,46.77c-1.04-11.26-9.12-19.59-20.49-20.49l-29.2-.03c-1.74-12.62-11.72-22.08-24.34-23.46h-61.77c-12.52.99-22.69,11.22-24.35,23.46l-29.65.12c-11.28,1.13-19.26,9.71-20.03,20.95v99.47c.85,11.32,7.97,19.61,19.39,21.03h170.49c11.69-1.1,19.07-9.51,19.94-21.03V46.77ZM150.21,148.53H28.94v-23.22l39.13-21.55,30.38,24.05,51.75-30.22v50.94ZM150.21,87.17l-50.99,29.77-30.25-23.95-40.03,22.05v-63.17h121.27v35.31ZM198.49,59.29c0,2.81-2.28,5.09-5.09,5.09h-22.31c-2.81,0-5.09-2.28-5.09-5.09v-2.35c0-2.81,2.28-5.09,5.09-5.09h22.31c2.81,0,5.09,2.28,5.09,5.09v2.35Z"/>
  <g>
    <path d="M90.83,79.73h6.93c.13.97.69,1.76,1.66,2.36.97.61,2.14.91,3.51.91s2.54-.28,3.4-.84c.86-.56,1.29-1.28,1.29-2.16,0-.79-.33-1.41-1-1.86s-1.82-.84-3.47-1.18l-3.75-.74c-2.64-.5-4.63-1.45-5.98-2.85s-2.03-3.19-2.03-5.37c0-2.75,1.06-4.97,3.19-6.64s4.86-2.5,8.22-2.5c3.55,0,6.34.8,8.38,2.39,2.03,1.6,3.07,3.75,3.11,6.47h-6.72c-.07-1.03-.53-1.85-1.39-2.44-.86-.6-1.96-.89-3.3-.89s-2.29.27-3.07.79-1.16,1.23-1.16,2.11c0,.77.33,1.39,1,1.86s1.76.86,3.27,1.16l3.72.7c2.82.54,4.89,1.48,6.22,2.8,1.32,1.32,1.99,3.12,1.99,5.38,0,2.85-1.09,5.12-3.28,6.81-2.19,1.69-5.13,2.53-8.82,2.53s-6.56-.78-8.67-2.33-3.19-3.71-3.23-6.48Z"/>
    <path d="M132.18,88.04h-7.27v-22.79h-7.91v-5.88h23.09v5.88h-7.91v22.79Z"/>
  </g>
</svg>